<?xml version="1.0" encoding="UTF-8"?>
<svg version="1.1" xmlns="http://www.w3.org/2000/svg" width="250" height="249">
<path d="M0 0 C1.87558594 0.34998047 1.87558594 0.34998047 3.7890625 0.70703125 C14.58766481 2.90767551 23.50501436 7.54328577 33 13 C34.85291189 14.02310911 36.706789 15.04447672 38.5625 16.0625 C40.2640625 17.0215625 40.2640625 17.0215625 42 18 C42 18.66 42 19.32 42 20 C43.175625 20.4640625 43.175625 20.4640625 44.375 20.9375 C47 22 47 22 49 23 C49 23.66 49 24.32 49 25 C49.5775 25.268125 50.155 25.53625 50.75 25.8125 C53.05550043 27.02929189 55.02056192 28.30333879 57 30 C57 30.66 57 31.32 57 32 C57.928125 32.37125 57.928125 32.37125 58.875 32.75 C61.35068687 34.20628639 61.95125002 35.37812506 63 38 C63.66 38 64.32 38 65 38 C65 38.66 65 39.32 65 40 C65.66 40 66.32 40 67 40 C68.44526736 41.73548169 69.8087222 43.53975963 71.125 45.375 C72.21167969 46.87160156 72.21167969 46.87160156 73.3203125 48.3984375 C75 51 75 51 75 53 C75.66 53 76.32 53 77 53 C77.32613281 53.59167969 77.65226563 54.18335938 77.98828125 54.79296875 C78.42527344 55.58316406 78.86226562 56.37335937 79.3125 57.1875 C79.77140625 58.01765625 80.2303125 58.8478125 80.703125 59.703125 C81.60957059 61.30851659 82.56756206 62.88539682 83.5625 64.4375 C85.35265034 67.62863757 86.64155874 70.92279682 87.9609375 74.33203125 C88.62905691 76.04754087 89.32005219 77.75440873 90.0390625 79.44921875 C95.97103551 93.50935325 97.17899693 107.20254417 97.1875 122.3125 C97.19974609 123.44623047 97.21199219 124.57996094 97.22460938 125.74804688 C97.25299619 142.35433369 93.87067913 158.84333329 87 174 C86.66613281 174.74894531 86.33226562 175.49789062 85.98828125 176.26953125 C83.30620454 181.94424093 80.09644214 187.2840444 76.8125 192.625 C76.15193604 193.71095459 76.15193604 193.71095459 75.47802734 194.81884766 C74.37523851 196.5825472 73.19398833 198.29671753 72 200 C71.34 200 70.68 200 70 200 C69.77699219 200.53753906 69.55398437 201.07507813 69.32421875 201.62890625 C67.56502874 204.77884235 65.24851263 207.30574 62.8125 209.9375 C62.31999756 210.47310547 61.82749512 211.00871094 61.32006836 211.56054688 C57.8278536 215.2864903 54.28504213 218.20160514 50 221 C49.278125 221.7425 48.55625 222.485 47.8125 223.25 C45.85444081 225.14053991 44.65889314 225.62015812 42 226 C42 226.66 42 227.32 42 228 C40.82244141 228.58007812 40.82244141 228.58007812 39.62109375 229.171875 C33.04007022 232.4089991 33.04007022 232.4089991 26.6875 236.0625 C10.76889284 245.38070907 -9.35049918 247.17739195 -27.3125 247.1875 C-28.44623047 247.19974609 -29.57996094 247.21199219 -30.74804688 247.22460938 C-58.31521899 247.27173275 -87.10538648 237.32009864 -108 219 C-108 218.34 -108 217.68 -108 217 C-108.66 217 -109.32 217 -110 217 C-110 216.34 -110 215.68 -110 215 C-110.99 215 -111.98 215 -113 215 C-114.6875 213.625 -114.6875 213.625 -116 212 C-116 211.34 -116 210.68 -116 210 C-116.66 210 -117.32 210 -118 210 C-119.60634015 208.26608049 -121.1375287 206.461909 -122.625 204.625 C-123.44226563 203.62726563 -124.25953125 202.62953125 -125.1015625 201.6015625 C-127 199 -127 199 -127 197 C-127.66 197 -128.32 197 -129 197 C-129 196.01 -129 195.02 -129 194 C-129.66 194 -130.32 194 -131 194 C-145.52357422 173.22529976 -152.66117711 148.04500843 -152.5 122.9375 C-152.49757294 122.1706488 -152.49514587 121.40379761 -152.49264526 120.6137085 C-152.34435931 96.38485388 -145.77580833 70.7692948 -131 51 C-130.34 51 -129.68 51 -129 51 C-129 50.01 -129 49.02 -129 48 C-128.34 48 -127.68 48 -127 48 C-126.34 46.35 -125.68 44.7 -125 43 C-124.34 43 -123.68 43 -123 43 C-122.731875 42.236875 -122.46375 41.47375 -122.1875 40.6875 C-121.04865495 38.11011382 -120.18583329 36.73045136 -118 35 C-117.34 35 -116.68 35 -116 35 C-116 34.34 -116 33.68 -116 33 C-114.35546875 31.30859375 -114.35546875 31.30859375 -112.1875 29.4375 C-111.47980469 28.81746094 -110.77210937 28.19742187 -110.04296875 27.55859375 C-108 26 -108 26 -105 25 C-105 24.34 -105 23.68 -105 23 C-91.25911091 11.65645752 -75.91822569 5.72543545 -59 1 C-58.22914062 0.77957031 -57.45828125 0.55914062 -56.6640625 0.33203125 C-39.26669985 -4.39011004 -17.5220848 -3.7423712 0 0 Z M-54 74 C-54.7528125 74.48339844 -55.505625 74.96679688 -56.28125 75.46484375 C-57.0134375 75.95082031 -57.745625 76.43679687 -58.5 76.9375 C-59.2321875 77.42089844 -59.964375 77.90429688 -60.71875 78.40234375 C-70.78647719 85.45320063 -79.03104855 95.88604302 -82 108 C-82.08758572 111.77540562 -81.7356371 115.29996389 -81 119 C-81.99 119.66 -82.98 120.32 -84 121 C-85.54816039 133.82761466 -80.56291877 147.80330212 -73 158 C-70.19212604 161.22675352 -67.33400607 164.31106638 -64 167 C-63.34 167 -62.68 167 -62 167 C-62 167.66 -62 168.32 -62 169 C-59.18490007 171.2773501 -59.18490007 171.2773501 -56 171 C-55.67 171.99 -55.34 172.98 -55 174 C-42.71027866 181.51658093 -27.64124237 182.95499185 -13.75 179.8125 C-8.11525003 178.23055148 -3.11366739 175.80695873 2 173 C3.33058804 172.32787077 4.66304036 171.65936419 6 171 C6 170.34 6 169.68 6 169 C6.58007812 168.74347656 7.16015625 168.48695313 7.7578125 168.22265625 C17.54294634 162.88686027 24.09876076 151.66061692 27.50390625 141.42138672 C32.21531587 124.90321687 29.39650539 108.92003858 21.42578125 94.06640625 C20.95527344 93.38449219 20.48476562 92.70257813 20 92 C19.34 92 18.68 92 18 92 C18 91.01 18 90.02 18 89 C17.34 89 16.68 89 16 89 C16 88.34 16 87.68 16 87 C15.34 87 14.68 87 14 87 C13.7525 86.38125 13.505 85.7625 13.25 85.125 C11.79371361 82.64931313 10.62187494 82.04874998 8 81 C8 80.34 8 79.68 8 79 C-10.53034818 68.64579098 -34.34608303 61.1932541 -54 74 Z " fill="#FAC938" transform="translate(153,2)"/>
<path d="M0 0 C2.41747589 1.41785294 4.87605148 2.75769374 7.33496094 4.10205078 C9.03652344 5.06111328 9.03652344 5.06111328 10.77246094 6.03955078 C10.77246094 6.69955078 10.77246094 7.35955078 10.77246094 8.03955078 C11.94808594 8.50361328 11.94808594 8.50361328 13.14746094 8.97705078 C15.77246094 10.03955078 15.77246094 10.03955078 17.77246094 11.03955078 C17.77246094 11.69955078 17.77246094 12.35955078 17.77246094 13.03955078 C18.34996094 13.30767578 18.92746094 13.57580078 19.52246094 13.85205078 C21.82796136 15.06884267 23.79302286 16.34288957 25.77246094 18.03955078 C25.77246094 18.69955078 25.77246094 19.35955078 25.77246094 20.03955078 C26.70058594 20.41080078 26.70058594 20.41080078 27.64746094 20.78955078 C30.12314781 22.24583717 30.72371096 23.41767584 31.77246094 26.03955078 C32.43246094 26.03955078 33.09246094 26.03955078 33.77246094 26.03955078 C33.77246094 26.69955078 33.77246094 27.35955078 33.77246094 28.03955078 C34.43246094 28.03955078 35.09246094 28.03955078 35.77246094 28.03955078 C37.2177283 29.77503247 38.58118314 31.57931041 39.89746094 33.41455078 C40.98414063 34.91115234 40.98414063 34.91115234 42.09277344 36.43798828 C43.77246094 39.03955078 43.77246094 39.03955078 43.77246094 41.03955078 C44.43246094 41.03955078 45.09246094 41.03955078 45.77246094 41.03955078 C46.09859375 41.63123047 46.42472656 42.22291016 46.76074219 42.83251953 C47.19773438 43.62271484 47.63472656 44.41291016 48.08496094 45.22705078 C48.54386719 46.05720703 49.00277344 46.88736328 49.47558594 47.74267578 C50.38203153 49.34806737 51.340023 50.9249476 52.33496094 52.47705078 C54.12511128 55.66818835 55.41401968 58.9623476 56.73339844 62.37158203 C57.40151785 64.08709166 58.09251313 65.79395951 58.81152344 67.48876953 C64.74349645 81.54890403 65.95145787 95.24209496 65.95996094 110.35205078 C65.97220703 111.48578125 65.98445312 112.61951172 65.99707031 113.78759766 C66.02545713 130.39388447 62.64314007 146.88288408 55.77246094 162.03955078 C55.43859375 162.78849609 55.10472656 163.53744141 54.76074219 164.30908203 C52.07866548 169.98379171 48.86890308 175.32359518 45.58496094 180.66455078 C44.92439697 181.75050537 44.92439697 181.75050537 44.25048828 182.85839844 C43.14769945 184.62209799 41.96644927 186.33626831 40.77246094 188.03955078 C40.11246094 188.03955078 39.45246094 188.03955078 38.77246094 188.03955078 C38.54945313 188.57708984 38.32644531 189.11462891 38.09667969 189.66845703 C36.33748968 192.81839313 34.02097357 195.34529078 31.58496094 197.97705078 C31.0924585 198.51265625 30.59995605 199.04826172 30.0925293 199.60009766 C26.60031453 203.32604108 23.05750306 206.24115592 18.77246094 209.03955078 C18.05058594 209.78205078 17.32871094 210.52455078 16.58496094 211.28955078 C14.62690175 213.18009069 13.43135408 213.6597089 10.77246094 214.03955078 C10.77246094 214.69955078 10.77246094 215.35955078 10.77246094 216.03955078 C9.59490234 216.61962891 9.59490234 216.61962891 8.39355469 217.21142578 C1.81253115 220.44854988 1.81253115 220.44854988 -4.54003906 224.10205078 C-20.45864623 233.42025985 -40.57803824 235.21694273 -58.54003906 235.22705078 C-59.67376953 235.23929688 -60.8075 235.25154297 -61.97558594 235.26416016 C-89.54275805 235.31128353 -118.33292554 225.35964942 -139.22753906 207.03955078 C-139.22753906 206.37955078 -139.22753906 205.71955078 -139.22753906 205.03955078 C-139.88753906 205.03955078 -140.54753906 205.03955078 -141.22753906 205.03955078 C-141.22753906 204.37955078 -141.22753906 203.71955078 -141.22753906 203.03955078 C-142.21753906 203.03955078 -143.20753906 203.03955078 -144.22753906 203.03955078 C-145.91503906 201.66455078 -145.91503906 201.66455078 -147.22753906 200.03955078 C-147.22753906 199.37955078 -147.22753906 198.71955078 -147.22753906 198.03955078 C-147.88753906 198.03955078 -148.54753906 198.03955078 -149.22753906 198.03955078 C-150.83387921 196.30563127 -152.36506776 194.50145978 -153.85253906 192.66455078 C-154.66980469 191.66681641 -155.48707031 190.66908203 -156.32910156 189.64111328 C-158.22753906 187.03955078 -158.22753906 187.03955078 -158.22753906 185.03955078 C-158.88753906 185.03955078 -159.54753906 185.03955078 -160.22753906 185.03955078 C-160.22753906 184.04955078 -160.22753906 183.05955078 -160.22753906 182.03955078 C-160.88753906 182.03955078 -161.54753906 182.03955078 -162.22753906 182.03955078 C-176.40866021 161.75469966 -183.83363078 137.0389167 -183.5637207 112.46923828 C-183.53984819 110.14597492 -183.54322363 107.82384573 -183.54980469 105.50048828 C-183.54423382 103.99527322 -183.53712767 102.49006288 -183.52832031 100.98486328 C-183.52923172 100.30449005 -183.53014313 99.62411682 -183.53108215 98.92312622 C-183.45933338 93.9933449 -182.54766399 89.75310954 -181.22753906 85.03955078 C-180.89753906 85.03955078 -180.56753906 85.03955078 -180.22753906 85.03955078 C-180.2380127 85.91579102 -180.24848633 86.79203125 -180.25927734 87.69482422 C-180.29374832 91.00491059 -180.31862427 94.31480103 -180.33740234 97.625 C-180.34734347 99.04658046 -180.36090114 100.46814114 -180.37841797 101.88964844 C-180.48520939 110.79102765 -180.11303207 119.29682176 -178.22753906 128.03955078 C-178.07969971 128.75554443 -177.93186035 129.47153809 -177.77954102 130.20922852 C-174.16679289 146.1238877 -166.70619292 160.65568714 -156.22753906 173.03955078 C-156.22753906 173.69955078 -156.22753906 174.35955078 -156.22753906 175.03955078 C-155.56753906 175.03955078 -154.90753906 175.03955078 -154.22753906 175.03955078 C-154.22753906 175.69955078 -154.22753906 176.35955078 -154.22753906 177.03955078 C-153.56753906 177.03955078 -152.90753906 177.03955078 -152.22753906 177.03955078 C-150.60253906 178.41455078 -150.60253906 178.41455078 -149.22753906 180.03955078 C-149.22753906 180.69955078 -149.22753906 181.35955078 -149.22753906 182.03955078 C-148.42316406 182.41080078 -148.42316406 182.41080078 -147.60253906 182.78955078 C-144.64514087 184.34607615 -141.93029856 186.07390751 -139.22753906 188.03955078 C-139.22753906 188.69955078 -139.22753906 189.35955078 -139.22753906 190.03955078 C-138.36128906 190.22517578 -138.36128906 190.22517578 -137.47753906 190.41455078 C-135.20418139 191.04603902 -133.30218617 191.92813269 -131.22753906 193.03955078 C-131.22753906 193.69955078 -131.22753906 194.35955078 -131.22753906 195.03955078 C-130.50566406 195.14267578 -129.78378906 195.24580078 -129.04003906 195.35205078 C-126.22753906 196.03955078 -126.22753906 196.03955078 -123.97363281 197.42236328 C-116.2366827 201.97868952 -107.02579332 204.43126774 -98.22753906 206.03955078 C-96.96554688 206.28576172 -95.70355469 206.53197266 -94.40332031 206.78564453 C-92.99072165 207.05861835 -91.57795937 207.33074674 -90.16503906 207.60205078 C-89.17334717 207.79275146 -89.17334717 207.79275146 -88.16162109 207.98730469 C-60.95909351 213.07976894 -31.17236854 210.69717827 -7.22753906 196.03955078 C-6.5765625 195.64380859 -5.92558594 195.24806641 -5.25488281 194.84033203 C-2.22061937 192.93850947 -2.22061937 192.93850947 -0.22753906 190.03955078 C0.76246094 190.03955078 1.75246094 190.03955078 2.77246094 190.03955078 C2.77246094 189.37955078 2.77246094 188.71955078 2.77246094 188.03955078 C3.43246094 188.03955078 4.09246094 188.03955078 4.77246094 188.03955078 C5.10246094 187.04955078 5.43246094 186.05955078 5.77246094 185.03955078 C6.43246094 185.03955078 7.09246094 185.03955078 7.77246094 185.03955078 C8.10246094 184.04955078 8.43246094 183.05955078 8.77246094 182.03955078 C9.43246094 182.03955078 10.09246094 182.03955078 10.77246094 182.03955078 C10.77246094 181.37955078 10.77246094 180.71955078 10.77246094 180.03955078 C11.43246094 180.03955078 12.09246094 180.03955078 12.77246094 180.03955078 C12.77246094 179.04955078 12.77246094 178.05955078 12.77246094 177.03955078 C13.33964844 176.47751953 13.90683594 175.91548828 14.49121094 175.33642578 C17.47911478 172.32805685 19.25567465 168.99272834 21.27246094 165.28955078 C21.65015625 164.61150391 22.02785156 163.93345703 22.41699219 163.23486328 C35.53112102 139.53028677 39.80290562 113.53676459 32.77246094 87.03955078 C30.41153637 79.49432793 27.62497499 73.26072264 22.77246094 67.03955078 C20.75432272 63.81322949 18.98097022 60.66507864 17.77246094 57.03955078 C17.11246094 57.03955078 16.45246094 57.03955078 15.77246094 57.03955078 C14.44042969 55.64892578 14.44042969 55.64892578 12.95996094 53.78955078 C10.47875499 50.77186787 7.83503204 48.47159254 4.77246094 46.03955078 C4.77246094 45.37955078 4.77246094 44.71955078 4.77246094 44.03955078 C4.22074219 43.78947266 3.66902344 43.53939453 3.10058594 43.28173828 C0.35278648 41.81563052 -1.99471546 40.04440293 -4.47753906 38.16455078 C-11.28397743 33.1701576 -18.08201641 29.99371715 -25.93066406 26.96923828 C-28.22753906 26.03955078 -28.22753906 26.03955078 -30.29785156 24.98876953 C-42.12663222 19.1701588 -62.63044802 19.34780982 -74.89550781 23.18798828 C-77.32160104 24.03556173 -79.70384624 24.94609193 -82.09863281 25.88330078 C-84.83005309 26.89266458 -87.36232886 27.56826387 -90.22753906 28.03955078 C-90.22753906 28.69955078 -90.22753906 29.35955078 -90.22753906 30.03955078 C-91.27941406 30.59642578 -92.33128906 31.15330078 -93.41503906 31.72705078 C-96.93236412 33.74599537 -99.44856943 36.05724191 -102.22753906 39.03955078 C-103.6418864 40.43773415 -105.05870629 41.8334193 -106.47753906 43.22705078 C-109.21710826 45.86906373 -109.21710826 45.86906373 -111.22753906 49.03955078 C-111.88753906 49.03955078 -112.54753906 49.03955078 -113.22753906 49.03955078 C-113.63359375 50.12429687 -113.63359375 50.12429687 -114.04785156 51.23095703 C-115.2055573 53.98721672 -116.57593914 56.41030634 -118.10253906 58.97705078 C-124.17926433 70.28154706 -125.58460447 80.09799925 -125.66503906 92.78955078 C-125.67519043 93.93810547 -125.6853418 95.08666016 -125.69580078 96.27001953 C-125.62302116 103.36346985 -124.69543613 109.39199095 -122.22753906 116.03955078 C-121.85113281 117.10044922 -121.47472656 118.16134766 -121.08691406 119.25439453 C-118.00692255 126.81338777 -114.41772523 134.91633106 -108.51660156 140.72314453 C-107.22753906 142.03955078 -107.22753906 142.03955078 -107.22753906 144.03955078 C-106.65261719 144.28576172 -106.07769531 144.53197266 -105.48535156 144.78564453 C-102.87114079 146.23748131 -101.16417698 147.94242627 -99.10253906 150.10205078 C-96.44848906 152.95527011 -96.44848906 152.95527011 -93.22753906 155.03955078 C-93.22753906 155.69955078 -93.22753906 156.35955078 -93.22753906 157.03955078 C-92.25816406 157.32830078 -91.28878906 157.61705078 -90.29003906 157.91455078 C-87.22753906 159.03955078 -87.22753906 159.03955078 -86.22753906 161.03955078 C-84.21084079 162.17305612 -84.21084079 162.17305612 -82.22753906 163.03955078 C-87.70142416 164.86417915 -93.15952264 161.30484433 -98.22753906 159.03955078 C-100.82471047 157.63528707 -103.32491201 156.15412387 -105.81347656 154.56689453 C-107.67767845 153.38743994 -109.60447923 152.30658498 -111.55175781 151.27001953 C-115.77421256 148.8736911 -119.15670896 145.74096747 -122.66503906 142.41455078 C-123.30119141 141.82931641 -123.93734375 141.24408203 -124.59277344 140.64111328 C-128.03863906 137.41362153 -128.03863906 137.41362153 -129.22753906 136.03955078 C-129.22753906 135.37955078 -129.22753906 134.71955078 -129.22753906 134.03955078 C-129.88753906 134.03955078 -130.54753906 134.03955078 -131.22753906 134.03955078 C-132.84863281 131.80908203 -132.84863281 131.80908203 -134.66503906 128.85205078 C-135.261875 127.88912109 -135.85871094 126.92619141 -136.47363281 125.93408203 C-137.05242187 124.97888672 -137.63121094 124.02369141 -138.22753906 123.03955078 C-138.76507813 122.15783203 -139.30261719 121.27611328 -139.85644531 120.36767578 C-150.41962745 102.43133233 -150.14527801 78.86960092 -145.56738281 59.20361328 C-143.23056811 50.29051677 -140.72099011 41.12776267 -136.22753906 33.03955078 C-135.56753906 33.03955078 -134.90753906 33.03955078 -134.22753906 33.03955078 C-134.14375 32.49814453 -134.05996094 31.95673828 -133.97363281 31.39892578 C-132.96903187 28.22207255 -131.25330974 25.97351575 -129.29003906 23.28955078 C-128.57976562 22.30470703 -127.86949219 21.31986328 -127.13769531 20.30517578 C-126.50734375 19.55751953 -125.87699219 18.80986328 -125.22753906 18.03955078 C-124.56753906 18.03955078 -123.90753906 18.03955078 -123.22753906 18.03955078 C-123.22753906 17.37955078 -123.22753906 16.71955078 -123.22753906 16.03955078 C-122.56753906 16.03955078 -121.90753906 16.03955078 -121.22753906 16.03955078 C-120.73253906 14.55455078 -120.73253906 14.55455078 -120.22753906 13.03955078 C-118.26160533 11.31350777 -116.3155242 9.72864359 -114.22753906 8.16455078 C-113.63666504 7.71837402 -113.04579102 7.27219727 -112.43701172 6.8125 C-105.19880927 1.42863171 -98.09497123 -2.22930075 -89.51269531 -5.06591797 C-87.07777605 -5.84307841 -87.07777605 -5.84307841 -85.22753906 -7.96044922 C-56.52428153 -17.77607097 -26.02459575 -15.29094912 0 0 Z " fill="#2A367B" transform="translate(184.2275390625,13.96044921875)"/>
<path d="M0 0 C0.66 0 1.32 0 2 0 C-0.38728669 8.3555034 -6.38996135 17.21397701 -13 23 C-13.66 23 -14.32 23 -15 23 C-15.18175781 23.66386719 -15.36351563 24.32773437 -15.55078125 25.01171875 C-18.21352852 34.36547198 -18.21352852 34.36547198 -21 38 C-21.66 38 -22.32 38 -23 38 C-23 38.99 -23 39.98 -23 41 C-23.66 41 -24.32 41 -25 41 C-25.17015625 41.57105469 -25.3403125 42.14210937 -25.515625 42.73046875 C-25.75796875 43.54128906 -26.0003125 44.35210937 -26.25 45.1875 C-26.64119019 46.52047119 -26.64119019 46.52047119 -27.0402832 47.88037109 C-27.65748469 49.8866292 -28.31918995 51.88001249 -29.03491211 53.85327148 C-32.09256164 62.60022955 -32.51123582 70.72656415 -32.3125 79.875 C-32.30096597 81.2499863 -32.29119359 82.62498854 -32.28320312 84 C-32.214504 90.1052616 -31.95670635 95.96124254 -31 102 C-30.34 102 -29.68 102 -29 102 C-27.71682108 105.84953676 -27.93356363 108.94738135 -28 113 C-27.34 113 -26.68 113 -26 113 C-25.01 116.465 -25.01 116.465 -24 120 C-23.34 120 -22.68 120 -22 120 C-21.32591692 121.26691507 -20.66099503 122.53870749 -20 123.8125 C-19.62875 124.52019531 -19.2575 125.22789062 -18.875 125.95703125 C-18 128 -18 128 -18 131 C-19.65 130.67 -21.3 130.34 -23 130 C-23.495 127.525 -23.495 127.525 -24 125 C-24.66 125 -25.32 125 -26 125 C-29.9692507 117.60689183 -33.53948381 110.63174099 -33 102 C-33.66 102 -34.32 102 -35 102 C-36.60725635 98.78548731 -36.05748185 95.56387464 -36 92 C-36.66 92 -37.32 92 -38 92 C-38 84.41 -38 76.82 -38 69 C-37.34 69 -36.68 69 -36 69 C-36.061875 67.88625 -36.12375 66.7725 -36.1875 65.625 C-36.21538129 60.43908031 -34.6739295 55.86236666 -33 51 C-32.34 51 -31.68 51 -31 51 C-30.67 48.36 -30.34 45.72 -30 43 C-29.34 43 -28.68 43 -28 43 C-28 41.35 -28 39.7 -28 38 C-27.34 38 -26.68 38 -26 38 C-25.67 35.36 -25.34 32.72 -25 30 C-24.34 30 -23.68 30 -23 30 C-23 29.34 -23 28.68 -23 28 C-22.34 28 -21.68 28 -21 28 C-20.896875 27.46375 -20.79375 26.9275 -20.6875 26.375 C-19.03438025 20.66422267 -16.31854629 17.0100787 -12 13 C-9.2648862 10.33326404 -6.69714055 7.66655241 -4.3125 4.6875 C-3.549375 3.800625 -2.78625 2.91375 -2 2 C-1.34 2 -0.68 2 0 2 C0 1.34 0 0.68 0 0 Z " fill="#A67022" transform="translate(45,35)"/>
<path d="M0 0 C0 0.99 0 1.98 0 3 C-5.94 3.33 -11.88 3.66 -18 4 C-18 4.66 -18 5.32 -18 6 C-21.63 6 -25.26 6 -29 6 C-29 6.66 -29 7.32 -29 8 C-30.828125 9.33203125 -30.828125 9.33203125 -33.25 10.8125 C-36.93799815 13.16888186 -39.38973276 15.45003656 -42 19 C-42.66 19 -43.32 19 -44 19 C-44 19.66 -44 20.32 -44 21 C-45.65 21 -47.3 21 -49 21 C-49.33 23.31 -49.66 25.62 -50 28 C-50.66 28 -51.32 28 -52 28 C-52 28.99 -52 29.98 -52 31 C-53.49609375 32.4296875 -53.49609375 32.4296875 -55.4375 33.875 C-58.44951784 36.30048726 -58.44951784 36.30048726 -59.9375 39.875 C-59.958125 40.57625 -59.97875 41.2775 -60 42 C-60.66 42 -61.32 42 -62 42 C-62.06058594 42.63808594 -62.12117188 43.27617188 -62.18359375 43.93359375 C-62.26738281 44.75988281 -62.35117188 45.58617187 -62.4375 46.4375 C-62.51871094 47.26121094 -62.59992188 48.08492187 -62.68359375 48.93359375 C-63 51 -63 51 -64 52 C-64.13467133 53.7896323 -64.2318435 55.58212112 -64.3125 57.375 C-64.77200377 63.76210244 -66.51683547 69.13280195 -69 75 C-69.33 74.34 -69.66 73.68 -70 73 C-70.66 73 -71.32 73 -72 73 C-72.08811914 69.66683723 -72.14076197 66.33397953 -72.1875 63 C-72.22520508 61.59814453 -72.22520508 61.59814453 -72.26367188 60.16796875 C-72.32713868 54.11746714 -71.60599095 49.46469333 -69 44 C-68.54238281 43.0203125 -68.08476563 42.040625 -67.61328125 41.03125 C-66.96939453 39.77828125 -66.96939453 39.77828125 -66.3125 38.5 C-65.87550781 37.6440625 -65.43851562 36.788125 -64.98828125 35.90625 C-64.66214844 35.2771875 -64.33601563 34.648125 -64 34 C-63.34 34 -62.68 34 -62 34 C-61.87625 33.236875 -61.7525 32.47375 -61.625 31.6875 C-61 29 -61 29 -59 26 C-58.34 26 -57.68 26 -57 26 C-56.74605469 25.41992188 -56.49210937 24.83984375 -56.23046875 24.2421875 C-53.97824727 20.13813948 -50.37213176 17.19302586 -47 14 C-46.16082031 13.17048828 -46.16082031 13.17048828 -45.3046875 12.32421875 C-37.18374515 4.73290307 -27.42770476 2.24884208 -16.625 1.1875 C-15.57183594 1.06697266 -14.51867187 0.94644531 -13.43359375 0.82226562 C-8.93050969 0.32287417 -4.5341785 -0.0628753 0 0 Z " fill="#6F3614" transform="translate(133,39)"/>
<path d="M0 0 C-0.203125 1.86328125 -0.203125 1.86328125 -1 4 C-3.109375 5.23046875 -3.109375 5.23046875 -5.75 6.1875 C-6.61109375 6.51105469 -7.4721875 6.83460938 -8.359375 7.16796875 C-10.89536685 7.96703127 -13.38422991 8.53424238 -16 9 C-16 9.66 -16 10.32 -16 11 C-17.65 11.33 -19.3 11.66 -21 12 C-20.938125 13.216875 -20.87625 14.43375 -20.8125 15.6875 C-20.80561244 19.56519349 -21.49650003 21.91876927 -24 25 C-24.66 25 -25.32 25 -26 25 C-26 26.65 -26 28.3 -26 30 C-26.66 30 -27.32 30 -28 30 C-28.33 31.65 -28.66 33.3 -29 35 C-29.66 35 -30.32 35 -31 35 C-31.33 36.32 -31.66 37.64 -32 39 C-33.98 39.495 -33.98 39.495 -36 40 C-36 40.99 -36 41.98 -36 43 C-36.99 43 -37.98 43 -39 43 C-39 43.66 -39 44.32 -39 45 C-39.99 45 -40.98 45 -42 45 C-42 45.99 -42 46.98 -42 48 C-44.64738916 49.4606285 -45.89448334 50 -49 50 C-49 50.99 -49 51.98 -49 53 C-50.65 53 -52.3 53 -54 53 C-54 53.66 -54 54.32 -54 55 C-56.97 55.495 -56.97 55.495 -60 56 C-60 56.66 -60 57.32 -60 58 C-61.65 58 -63.3 58 -65 58 C-65 58.66 -65 59.32 -65 60 C-68.21451269 61.60725635 -71.43612536 61.05748185 -75 61 C-74.30998457 72.52873105 -74.30998457 72.52873105 -73 84 C-65.08 83.505 -65.08 83.505 -57 83 C-57 82.34 -57 81.68 -57 81 C-55.35 81 -53.7 81 -52 81 C-54.47006264 83.9690652 -56.73881064 84.73898943 -60.4375 85.6875 C-61.38496094 85.93886719 -62.33242187 86.19023437 -63.30859375 86.44921875 C-66 87 -66 87 -70 87 C-70 87.66 -70 88.32 -70 89 C-72.64 89 -75.28 89 -78 89 C-78.3384185 85.3129484 -78.66981608 81.62529741 -79 77.9375 C-79.09539062 76.89916016 -79.19078125 75.86082031 -79.2890625 74.79101562 C-79.75899954 69.50422394 -80.12045745 64.30765619 -80 59 C-70.04075829 56.13649289 -70.04075829 56.13649289 -65.1875 55.5 C-61.65215872 54.94543666 -59.13674521 53.67779395 -56 52 C-55.34 52 -54.68 52 -54 52 C-54 51.34 -54 50.68 -54 50 C-52.3203125 48.7109375 -52.3203125 48.7109375 -50.125 47.375 C-49.04605469 46.70597656 -49.04605469 46.70597656 -47.9453125 46.0234375 C-46 45 -46 45 -44 45 C-44 44.34 -44 43.68 -44 43 C-43.34 43 -42.68 43 -42 43 C-42 42.34 -42 41.68 -42 41 C-40.34997172 39.64613064 -38.6825613 38.31321858 -37 37 C-36.505 36.01 -36.505 36.01 -36 35 C-35.34 35 -34.68 35 -34 35 C-33.67 33.35 -33.34 31.7 -33 30 C-32.34 30 -31.68 30 -31 30 C-31 29.01 -31 28.02 -31 27 C-30.34 27 -29.68 27 -29 27 C-28.896875 25.824375 -28.79375 24.64875 -28.6875 23.4375 C-28.31530119 19.19443352 -27.03078798 15.74360289 -25 12 C-21.9609375 9.9609375 -21.9609375 9.9609375 -18.375 8.375 C-17.11637587 7.79995021 -15.85856277 7.22312203 -14.6015625 6.64453125 C-13.41304688 6.10183594 -12.22453125 5.55914062 -11 5 C-8.53008453 3.656772 -6.09876529 2.26638347 -3.671875 0.84765625 C-2 0 -2 0 0 0 Z " fill="#A67022" transform="translate(213,128)"/>
<path d="M0 0 C-0.99 0.33 -1.98 0.66 -3 1 C-3 1.66 -3 2.32 -3 3 C-5.31 3.33 -7.62 3.66 -10 4 C-10 4.66 -10 5.32 -10 6 C-11.65 6.33 -13.3 6.66 -15 7 C-15 7.66 -15 8.32 -15 9 C-16.98 9.99 -16.98 9.99 -19 11 C-18.67 12.98 -18.34 14.96 -18 17 C-17.01 17 -16.02 17 -15 17 C-15 17.66 -15 18.32 -15 19 C-14.21625 19.309375 -13.4325 19.61875 -12.625 19.9375 C-10 21 -10 21 -8 22 C-8 22.66 -8 23.32 -8 24 C-6.35 24.33 -4.7 24.66 -3 25 C-3 25.66 -3 26.32 -3 27 C-0.69 27.66 1.62 28.32 4 29 C4.33 30.65 4.66 32.3 5 34 C6.0828125 34.185625 6.0828125 34.185625 7.1875 34.375 C9.95721894 34.9904931 12.3970354 35.88444374 15 37 C15 37.66 15 38.32 15 39 C17.97 39.495 17.97 39.495 21 40 C21 40.66 21 41.32 21 42 C23.31 42.33 25.62 42.66 28 43 C28 43.66 28 44.32 28 45 C35.65069819 46.00512999 43.32419092 46.77698583 51 47.5625 C52.36068529 47.70239414 53.72136245 47.84236745 55.08203125 47.98242188 C58.38794184 48.3223914 61.69393243 48.66156107 65 49 C65 49.33 65 49.66 65 50 C49.10941602 53.3453861 32.8750335 49.59950974 18 44 C18 43.34 18 42.68 18 42 C16.35 42 14.7 42 13 42 C13 41.34 13 40.68 13 40 C11.35 39.67 9.7 39.34 8 39 C8 38.34 8 37.68 8 37 C7.29875 36.896875 6.5975 36.79375 5.875 36.6875 C2.60862353 35.90640997 -0.0471852 34.57941257 -3 33 C-3 32.01 -3 31.02 -3 30 C-4.65 29.67 -6.3 29.34 -8 29 C-8 28.34 -8 27.68 -8 27 C-8.598125 26.87625 -9.19625 26.7525 -9.8125 26.625 C-12 26 -12 26 -15 24 C-15 23.34 -15 22.68 -15 22 C-16.65 21.67 -18.3 21.34 -20 21 C-20.12375 20.071875 -20.12375 20.071875 -20.25 19.125 C-20.80607909 16.82618538 -20.80607909 16.82618538 -23 15.8125 C-23.66 15.544375 -24.32 15.27625 -25 15 C-26 14 -26 14 -26.0625 11.4375 C-26.041875 10.633125 -26.02125 9.82875 -26 9 C-24.35 8.67 -22.7 8.34 -21 8 C-21 7.34 -21 6.68 -21 6 C-19.845 5.5875 -18.69 5.175 -17.5 4.75 C-14.4490672 3.62682474 -11.66103192 2.31262322 -8.8125 0.75 C-5.53129986 -0.95855392 -3.59555228 -1.34833211 0 0 Z " fill="#9E6820" transform="translate(58,167)"/>
<path d="M0 0 C0.99 0 1.98 0 3 0 C3 2.31 3 4.62 3 7 C2.34 7 1.68 7 1 7 C0.67 11.62 0.34 16.24 0 21 C1.4025 21.12375 2.805 21.2475 4.25 21.375 C7.62928808 21.67317248 10.03821227 22.32889958 13 24 C13 24.66 13 25.32 13 26 C14.65 26.66 16.3 27.32 18 28 C18 28.66 18 29.32 18 30 C18.5775 30.12375 19.155 30.2475 19.75 30.375 C22.02335767 31.00648824 23.9253529 31.88858191 26 33 C26 33.66 26 34.32 26 35 C26.66 35 27.32 35 28 35 C28 35.66 28 36.32 28 37 C28.99 37.33 29.98 37.66 31 38 C31 38.66 31 39.32 31 40 C31.99 40 32.98 40 34 40 C34 40.99 34 41.98 34 43 C34.66 43 35.32 43 36 43 C36 43.99 36 44.98 36 46 C36.66 46 37.32 46 38 46 C38.495 48.475 38.495 48.475 39 51 C39.66 51 40.32 51 41 51 C41.495 53.475 41.495 53.475 42 56 C42.66 56 43.32 56 44 56 C44.81756238 58.06049855 45.62884734 60.12348853 46.4375 62.1875 C47.11619141 63.91033203 47.11619141 63.91033203 47.80859375 65.66796875 C49.48311939 70.3511503 50.12865125 74.35115656 50.0625 79.3125 C50.05347656 80.19550781 50.04445312 81.07851562 50.03515625 81.98828125 C50.02355469 82.65214844 50.01195312 83.31601563 50 84 C48.68 84 47.36 84 46 84 C44.22458462 76.36399015 43.46569122 68.8187104 43 61 C42.34 61 41.68 61 41 61 C41 59.35 41 57.7 41 56 C40.34 56 39.68 56 39 56 C38.67 54.35 38.34 52.7 38 51 C37.34 51 36.68 51 36 51 C36 50.01 36 49.02 36 48 C35.34 48 34.68 48 34 48 C34 47.34 34 46.68 34 46 C33.01 46 32.02 46 31 46 C31 45.01 31 44.02 31 43 C30.01 42.67 29.02 42.34 28 42 C28 41.34 28 40.68 28 40 C27.34 40 26.68 40 26 40 C26 39.34 26 38.68 26 38 C25.01 38 24.02 38 23 38 C22.15695313 37.13568359 22.15695313 37.13568359 21.296875 36.25390625 C18.28771867 33.30104366 15.01973638 31.75580221 11.25 29.9375 C10.23292969 29.42993164 10.23292969 29.42993164 9.1953125 28.91210938 C4.55718607 26.63272595 -0.13780937 24.74973452 -5 23 C-5.125 17.25 -5.125 17.25 -4 15 C-3.7724985 13.12943209 -3.59037189 11.25314042 -3.4375 9.375 C-3.35371094 8.37210938 -3.26992187 7.36921875 -3.18359375 6.3359375 C-3.12300781 5.56507812 -3.06242188 4.79421875 -3 4 C-2.34 4 -1.68 4 -1 4 C-0.67 2.68 -0.34 1.36 0 0 Z " fill="#A06A20" transform="translate(143,43)"/>
<path d="M0 0 C0.66 0 1.32 0 2 0 C2.33 2.64 2.66 5.28 3 8 C3.33 5.36 3.66 2.72 4 0 C4.33 0 4.66 0 5 0 C5.02505615 0.75095947 5.0501123 1.50191895 5.07592773 2.27563477 C5.19254942 5.70473533 5.31497417 9.13360553 5.4375 12.5625 C5.47681641 13.74392578 5.51613281 14.92535156 5.55664062 16.14257812 C5.7637504 21.83013123 6.01968432 27.38995814 7 33 C7.66 33 8.32 33 9 33 C10.28317892 36.84953676 10.06643637 39.94738135 10 44 C10.66 44 11.32 44 12 44 C12.66 46.31 13.32 48.62 14 51 C14.66 51 15.32 51 16 51 C16.67408308 52.26691507 17.33900497 53.53870749 18 54.8125 C18.556875 55.87404297 18.556875 55.87404297 19.125 56.95703125 C20 59 20 59 20 62 C18.35 61.67 16.7 61.34 15 61 C14.67 59.35 14.34 57.7 14 56 C13.34 56 12.68 56 12 56 C8.0307493 48.60689183 4.46051619 41.63174099 5 33 C4.34 33 3.68 33 3 33 C1.39274365 29.78548731 1.94251815 26.56387464 2 23 C1.34 23 0.68 23 0 23 C0 15.41 0 7.82 0 0 Z " fill="#B57F26" transform="translate(7,104)"/>
<path d="M0 0 C0.495 1.485 0.495 1.485 1 3 C-1.12515329 6.18772993 -2.66515721 7.24920753 -6 9 C-6.66 9 -7.32 9 -8 9 C-8.33 9.99 -8.66 10.98 -9 12 C-10.70703125 13.6484375 -10.70703125 13.6484375 -12.8125 15.375 C-15.95562617 18.03629222 -18.50742309 20.70623765 -21 24 C-21.721875 24.680625 -22.44375 25.36125 -23.1875 26.0625 C-25.154194 28.16482807 -25.38411397 29.27250473 -26 32 C-26.69222656 32.68642578 -26.69222656 32.68642578 -27.3984375 33.38671875 C-31.74310602 37.76317752 -33.5390294 44.1561176 -35 50 C-35.99 50 -36.98 50 -38 50 C-36.29340235 41.42210127 -33.52911683 34.46596603 -29 27 C-28.484375 26.07058594 -27.96875 25.14117187 -27.4375 24.18359375 C-26.963125 23.46300781 -26.48875 22.74242188 -26 22 C-25.34 22 -24.68 22 -24 22 C-23.7628125 21.43796875 -23.525625 20.8759375 -23.28125 20.296875 C-21.71052303 17.48105958 -19.78528536 15.52044584 -17.5 13.25 C-16.7059375 12.45078125 -15.911875 11.6515625 -15.09375 10.828125 C-13 9 -13 9 -11 9 C-10.67 8.01 -10.34 7.02 -10 6 C-5.66666667 3 -5.66666667 3 -3 3 C-3 2.34 -3 1.68 -3 1 C-2.01 0.67 -1.02 0.34 0 0 Z " fill="#F4C338" transform="translate(97,41)"/>
<path d="M0 0 C0.33 0 0.66 0 1 0 C1.33 1.65 1.66 3.3 2 5 C2.66 5 3.32 5 4 5 C4 4.01 4 3.02 4 2 C4.66 2 5.32 2 6 2 C5.125 8.875 5.125 8.875 4 10 C3.86532867 11.7896323 3.7681565 13.58212112 3.6875 15.375 C3.22799623 21.76210244 1.48316453 27.13280195 -1 33 C-1.33 32.34 -1.66 31.68 -2 31 C-2.66 31 -3.32 31 -4 31 C-4.08811914 27.66683723 -4.14076197 24.33397953 -4.1875 21 C-4.22520508 19.59814453 -4.22520508 19.59814453 -4.26367188 18.16796875 C-4.33690436 11.18647232 -3.13497972 6.26995944 0 0 Z " fill="#9F6820" transform="translate(65,81)"/>
<path d="M0 0 C0.99 0 1.98 0 3 0 C3 2.31 3 4.62 3 7 C2.34 7 1.68 7 1 7 C0.67 11.62 0.34 16.24 0 21 C1.4025 21.12375 2.805 21.2475 4.25 21.375 C7.62928808 21.67317248 10.03821227 22.32889958 13 24 C13 24.66 13 25.32 13 26 C13.99 26.33 14.98 26.66 16 27 C13 28 13 28 10 27 C10 26.34 10 25.68 10 25 C9.01 25.226875 8.02 25.45375 7 25.6875 C2.38990295 26.3851425 -0.79933553 24.8423967 -5 23 C-5.125 17.25 -5.125 17.25 -4 15 C-3.7724985 13.12943209 -3.59037189 11.25314042 -3.4375 9.375 C-3.35371094 8.37210938 -3.26992187 7.36921875 -3.18359375 6.3359375 C-3.12300781 5.56507812 -3.06242188 4.79421875 -3 4 C-2.34 4 -1.68 4 -1 4 C-0.67 2.68 -0.34 1.36 0 0 Z " fill="#955E1E" transform="translate(143,43)"/>
<path d="M0 0 C-0.203125 1.86328125 -0.203125 1.86328125 -1 4 C-3.109375 5.23046875 -3.109375 5.23046875 -5.75 6.1875 C-6.61109375 6.51105469 -7.4721875 6.83460938 -8.359375 7.16796875 C-10.89536685 7.96703127 -13.38422991 8.53424238 -16 9 C-16 9.66 -16 10.32 -16 11 C-17.65 11.33 -19.3 11.66 -21 12 C-20.938125 13.2375 -20.87625 14.475 -20.8125 15.75 C-20.79637174 18.78211302 -20.89348977 19.82248296 -22.5 22.5 C-22.995 22.995 -23.49 23.49 -24 24 C-24.33 22.68 -24.66 21.36 -25 20 C-25.99 22.475 -25.99 22.475 -27 25 C-27.66 25 -28.32 25 -29 25 C-28.41411061 20.19570698 -27.28146728 16.28191875 -25 12 C-21.9609375 9.9609375 -21.9609375 9.9609375 -18.375 8.375 C-17.11637587 7.79995021 -15.85856277 7.22312203 -14.6015625 6.64453125 C-13.41304687 6.10183594 -12.22453125 5.55914062 -11 5 C-8.53008453 3.656772 -6.09876529 2.26638347 -3.671875 0.84765625 C-2 0 -2 0 0 0 Z " fill="#9E6820" transform="translate(213,128)"/>
<path d="M0 0 C0.33 0 0.66 0 1 0 C1 1.98 1 3.96 1 6 C1.55945313 6.13535156 2.11890625 6.27070312 2.6953125 6.41015625 C11.6426362 8.81241197 21.98070426 12.77599392 29 19 C29 19.66 29 20.32 29 21 C28.34 21 27.68 21 27 21 C27 20.34 27 19.68 27 19 C26.01 19 25.02 19 24 19 C24 18.34 24 17.68 24 17 C22.35 16.67 20.7 16.34 19 16 C19 15.34 19 14.68 19 14 C18.071875 14 17.14375 14 16.1875 14 C11.59090725 14 7.79791655 13.56584156 3.3125 12.5 C2.13300781 12.2215625 0.95351562 11.943125 -0.26171875 11.65625 C-1.16535156 11.4396875 -2.06898438 11.223125 -3 11 C-2.01 10.67 -1.02 10.34 0 10 C-0.185625 8.906875 -0.37125 7.81375 -0.5625 6.6875 C-1 3 -1 3 0 0 Z " fill="#E7B738" transform="translate(137,60)"/>
<path d="M0 0 C3.11990898 2.78533429 3.53816182 4.84345641 4 9 C4.66 9 5.32 9 6 9 C6.66 11.31 7.32 13.62 8 16 C8.66 16 9.32 16 10 16 C10.67408308 17.26691507 11.33900497 18.53870749 12 19.8125 C12.556875 20.87404297 12.556875 20.87404297 13.125 21.95703125 C14 24 14 24 14 27 C12.35 26.67 10.7 26.34 9 26 C8.67 24.35 8.34 22.7 8 21 C7.34 21 6.68 21 6 21 C1.88295322 13.99646286 0.16992613 8.12555866 0 0 Z " fill="#A87223" transform="translate(13,139)"/>
<path d="M0 0 C0.99 0 1.98 0 3 0 C2.57497981 5.20649733 1.50365858 9.91219609 0.0625 14.9375 C-2.28068453 23.18728598 -3.20746673 31.48026735 -4 40 C-4.33 40 -4.66 40 -5 40 C-5.08821107 36.04181074 -5.14079412 32.08387938 -5.1875 28.125 C-5.21263672 27.01640625 -5.23777344 25.9078125 -5.26367188 24.765625 C-5.32649453 17.64572459 -4.51242511 11.67525198 -2 5 C-1.34 5 -0.68 5 0 5 C0 3.35 0 1.7 0 0 Z " fill="#99621F" transform="translate(14,81)"/>
<path d="M0 0 C-0.99 0.33 -1.98 0.66 -3 1 C-3 1.66 -3 2.32 -3 3 C-5.31 3.33 -7.62 3.66 -10 4 C-10 4.66 -10 5.32 -10 6 C-11.65 6.33 -13.3 6.66 -15 7 C-15 7.66 -15 8.32 -15 9 C-16.65 9.33 -18.3 9.66 -20 10 C-20.33 11.32 -20.66 12.64 -21 14 C-22.32 13.67 -23.64 13.34 -25 13 C-25.33 11.68 -25.66 10.36 -26 9 C-24.35 8.67 -22.7 8.34 -21 8 C-21 7.34 -21 6.68 -21 6 C-19.845 5.5875 -18.69 5.175 -17.5 4.75 C-14.4490672 3.62682474 -11.66103192 2.31262322 -8.8125 0.75 C-5.53129986 -0.95855392 -3.59555228 -1.34833211 0 0 Z " fill="#965F1E" transform="translate(58,167)"/>
<path d="M0 0 C4.05680242 4.05680242 4.125 10.02901747 4.125 15.5 C4.09336832 17.00024516 4.0553116 18.50044115 4 20 C2.68 20 1.36 20 0 20 C-0.33951619 18.43883181 -0.67132544 16.87598662 -1 15.3125 C-1.185625 14.44238281 -1.37125 13.57226562 -1.5625 12.67578125 C-1.98972047 10.06287036 -2.07616201 7.64186962 -2 5 C-1.34 5 -0.68 5 0 5 C0 3.35 0 1.7 0 0 Z " fill="#B07B24" transform="translate(189,107)"/>
<path d="M0 0 C1.32 0 2.64 0 4 0 C4 2.64 4 5.28 4 8 C3.34 8 2.68 8 2 8 C2 8.66 2 9.32 2 10 C1.34 10 0.68 10 0 10 C0 10.99 0 11.98 0 13 C-0.66 13 -1.32 13 -2 13 C-2.33 13.99 -2.66 14.98 -3 16 C-3.46417129 6.18363679 -3.46417129 6.18363679 -1.75 1.8125 C-1.1725 1.214375 -0.595 0.61625 0 0 Z " fill="#88511B" transform="translate(69,73)"/>
<path d="M0 0 C0.99 0 1.98 0 3 0 C2.67 1.32 2.34 2.64 2 4 C1.34 4 0.68 4 0 4 C0 4.99 0 5.98 0 7 C-1.75 8.60546875 -1.75 8.60546875 -4 10.1875 C-4.7425 10.71730469 -5.485 11.24710938 -6.25 11.79296875 C-6.8275 12.19128906 -7.405 12.58960937 -8 13 C-8 12.01 -8 11.02 -8 10 C-8.66 10 -9.32 10 -10 10 C-9.45276317 6.62537285 -8.9451 4.91765 -7 2 C-6.34 2 -5.68 2 -5 2 C-5 2.99 -5 3.98 -5 5 C-3.00016466 4.20882096 -3.00016466 4.20882096 -1 3 C-0.67 2.01 -0.34 1.02 0 0 Z " fill="#88501A" transform="translate(81,63)"/>
<path d="M0 0 C0 0.99 0 1.98 0 3 C-0.66 3 -1.32 3 -2 3 C-2 3.66 -2 4.32 -2 5 C-2.66 5 -3.32 5 -4 5 C-4 5.99 -4 6.98 -4 8 C-4.99 8 -5.98 8 -7 8 C-7.33 9.32 -7.66 10.64 -8 12 C-9.32 12.33 -10.64 12.66 -12 13 C-12.3352089 9.80992862 -12.29480604 8.41000936 -10.390625 5.76171875 C-9.68421875 5.07722656 -8.9778125 4.39273438 -8.25 3.6875 C-7.55390625 2.99011719 -6.8578125 2.29273438 -6.140625 1.57421875 C-4 0 -4 0 0 0 Z " fill="#713815" transform="translate(88,55)"/>
<path d="M0 0 C0.66 0.99 1.32 1.98 2 3 C2.66 3.33 3.32 3.66 4 4 C3.04882866 5.1725131 2.08882991 6.33787015 1.125 7.5 C0.59132813 8.1496875 0.05765625 8.799375 -0.4921875 9.46875 C-1.23855469 10.22671875 -1.23855469 10.22671875 -2 11 C-2.66 11 -3.32 11 -4 11 C-4 11.66 -4 12.32 -4 13 C-4.99 13 -5.98 13 -7 13 C-7 12.34 -7 11.68 -7 11 C-6.34 11 -5.68 11 -5 11 C-5 10.01 -5 9.02 -5 8 C-5.99 7.67 -6.98 7.34 -8 7 C-5.36 4.69 -2.72 2.38 0 0 Z " fill="#89521B" transform="translate(93,47)"/>
<path d="M0 0 C0.33 0 0.66 0 1 0 C1 1.98 1 3.96 1 6 C1.90492188 6.07347656 1.90492188 6.07347656 2.828125 6.1484375 C4.02695313 6.26058594 4.02695313 6.26058594 5.25 6.375 C6.03890625 6.44460937 6.8278125 6.51421875 7.640625 6.5859375 C10.085877 7.01507113 11.84836903 7.78600638 14 9 C14 9.66 14 10.32 14 11 C14.99 11.33 15.98 11.66 17 12 C14 13 14 13 11 12 C11 11.34 11 10.68 11 10 C9.9275 10.20625 8.855 10.4125 7.75 10.625 C4.12380904 10.9876191 2.91708924 10.98362069 0 9 C0 8.34 0 7.68 0 7 C-0.185625 6.175 -0.37125 5.35 -0.5625 4.5 C-1 2 -1 2 0 0 Z " fill="#AF7924" transform="translate(142,58)"/>
<path d="M0 0 C0.33 0.99 0.66 1.98 1 3 C-1.12515329 6.18772993 -2.66515721 7.24920753 -6 9 C-6.66 9 -7.32 9 -8 9 C-8.33 9.99 -8.66 10.98 -9 12 C-10.65 11.67 -12.3 11.34 -14 11 C-13.67 10.34 -13.34 9.68 -13 9 C-12.34 9 -11.68 9 -11 9 C-10.67 8.01 -10.34 7.02 -10 6 C-5.66666667 3 -5.66666667 3 -3 3 C-3 2.34 -3 1.68 -3 1 C-2.01 0.67 -1.02 0.34 0 0 Z " fill="#F1BF36" transform="translate(97,41)"/>
<path d="M0 0 C0.33 0 0.66 0 1 0 C1.05413245 2.89608593 1.09373641 5.79115195 1.125 8.6875 C1.15013672 9.91243164 1.15013672 9.91243164 1.17578125 11.16210938 C1.2114802 15.57092929 1.07580814 18.98731576 -1 23 C-1.33 23 -1.66 23 -2 23 C-2.0582253 19.91674642 -2.09367134 16.83363495 -2.125 13.75 C-2.14175781 12.87730469 -2.15851562 12.00460938 -2.17578125 11.10546875 C-2.18222656 10.26113281 -2.18867187 9.41679688 -2.1953125 8.546875 C-2.20578613 7.77182617 -2.21625977 6.99677734 -2.22705078 6.19824219 C-1.97326556 3.74116461 -1.22444152 2.12688458 0 0 Z " fill="#6A3113" transform="translate(65,91)"/>
<path d="M0 0 C0.33 0 0.66 0 1 0 C1.33 2.64 1.66 5.28 2 8 C9.92 7.505 9.92 7.505 18 7 C18 6.34 18 5.68 18 5 C19.65 5 21.3 5 23 5 C19.28465759 9.52966403 13.52201375 10.08085191 8 11 C5.33253522 11.04062129 3.59216677 10.74884818 1 10 C-0.60725635 6.78548731 -0.05748185 3.56387464 0 0 Z " fill="#BE8828" transform="translate(138,204)"/>
<path d="M0 0 C0.66 0 1.32 0 2 0 C0.68035085 4.61877202 -0.94474825 8.26580341 -4 12 C-7.25 13.375 -7.25 13.375 -10 14 C-8.53289058 9.15853891 -5.6487256 5.44051028 -2 2 C-1.34 2 -0.68 2 0 2 C0 1.34 0 0.68 0 0 Z " fill="#9F6820" transform="translate(45,35)"/>
<path d="M0 0 C0.33 0.66 0.66 1.32 1 2 C2.65 1.34 4.3 0.68 6 0 C5.05065487 1.67180274 4.09026687 3.33733936 3.125 5 C2.59132813 5.928125 2.05765625 6.85625 1.5078125 7.8125 C1.01023437 8.534375 0.51265625 9.25625 0 10 C-0.66 10 -1.32 10 -2 10 C-2.33 9.34 -2.66 8.68 -3 8 C-3.66 8 -4.32 8 -5 8 C-5 8.66 -5 9.32 -5 10 C-5.66 10 -6.32 10 -7 10 C-6.52727227 5.74545047 -4.03562624 3.80795427 -1 1 C-0.67 0.67 -0.34 0.34 0 0 Z " fill="#AA7423" transform="translate(34,47)"/>
<path d="M0 0 C0 0.99 0 1.98 0 3 C-5.94 3.33 -11.88 3.66 -18 4 C-18 4.66 -18 5.32 -18 6 C-19.65 6 -21.3 6 -23 6 C-22.34 5.67 -21.68 5.34 -21 5 C-21 4.34 -21 3.68 -21 3 C-18.43850372 2.49432271 -15.87600535 1.99529868 -13.3125 1.5 C-12.59126953 1.35691406 -11.87003906 1.21382812 -11.12695312 1.06640625 C-7.36158641 0.34428113 -3.85526187 -0.1824976 0 0 Z " fill="#99621F" transform="translate(133,39)"/>
<path d="M0 0 C0.33 0 0.66 0 1 0 C1 1.65 1 3.3 1 5 C1.66 5 2.32 5 3 5 C3.33 4.01 3.66 3.02 4 2 C4.36923077 7.41538462 4.36923077 7.41538462 2.5 10.375 C2.005 10.91125 1.51 11.4475 1 12 C0.67 10.68 0.34 9.36 0 8 C-0.66 9.65 -1.32 11.3 -2 13 C-2.66 13 -3.32 13 -4 13 C-3.40895235 8.15340923 -2.02055843 4.39251833 0 0 Z " fill="#C4902A" transform="translate(188,140)"/>
<path d="M0 0 C5.60741736 -0.10103455 10.94806761 0.23917964 16.5 1 C17.22703125 1.09539062 17.9540625 1.19078125 18.703125 1.2890625 C20.46935867 1.52146167 22.23477406 1.76006638 24 2 C24 2.33 24 2.66 24 3 C18.63904667 4.12862175 13.44693314 4.09688221 8 4 C8 3.34 8 2.68 8 2 C5.36 1.67 2.72 1.34 0 1 C0 0.67 0 0.34 0 0 Z " fill="#C7922A" transform="translate(99,214)"/>
<path d="M0 0 C0.66 0.33 1.32 0.66 2 1 C2 4.33333333 2 7.66666667 2 11 C2.99 11.33 3.98 11.66 5 12 C4.01 12.33 3.02 12.66 2 13 C0.5 11.625 0.5 11.625 -1 10 C-1 9.34 -1 8.68 -1 8 C-2.32 7.34 -3.64 6.68 -5 6 C-5 5.01 -5 4.02 -5 3 C-3.68 3.66 -2.36 4.32 -1 5 C-0.67 3.35 -0.34 1.7 0 0 Z " fill="#BA8427" transform="translate(38,176)"/>
<path d="M0 0 C0.33 0 0.66 0 1 0 C1 1.98 1 3.96 1 6 C1.69867188 6.19335938 2.39734375 6.38671875 3.1171875 6.5859375 C4.48230469 6.97652344 4.48230469 6.97652344 5.875 7.375 C6.77992188 7.63023438 7.68484375 7.88546875 8.6171875 8.1484375 C11 9 11 9 13 11 C12.26394531 10.91621094 11.52789062 10.83242187 10.76953125 10.74609375 C9.30580078 10.59333984 9.30580078 10.59333984 7.8125 10.4375 C6.84957031 10.33308594 5.88664063 10.22867188 4.89453125 10.12109375 C2.05766623 10.00241249 -0.25423671 10.32234361 -3 11 C-2.01 10.67 -1.02 10.34 0 10 C-0.185625 8.906875 -0.37125 7.81375 -0.5625 6.6875 C-1 3 -1 3 0 0 Z " fill="#DBA933" transform="translate(137,60)"/>
<path d="M0 0 C2.49505962 2.49505962 2.35948376 3.67328888 2.625 7.125 C2.69976562 8.03507813 2.77453125 8.94515625 2.8515625 9.8828125 C2.92503906 10.93082031 2.92503906 10.93082031 3 12 C5.31 12 7.62 12 10 12 C7 14 7 14 0 14 C0 9.38 0 4.76 0 0 Z " fill="#955E1E" transform="translate(136,202)"/>
<path d="M0 0 C0.99 0 1.98 0 3 0 C3 0.66 3 1.32 3 2 C4.175625 2.4640625 4.175625 2.4640625 5.375 2.9375 C8 4 8 4 10 5 C10 5.66 10 6.32 10 7 C9.34 7 8.68 7 8 7 C7.67 7.99 7.34 8.98 7 10 C3.125 7.375 3.125 7.375 2 4 C1.34 3.67 0.68 3.34 0 3 C0 2.01 0 1.02 0 0 Z " fill="#AE7824" transform="translate(40,184)"/>
<path d="M0 0 C3.15295167 3.15295167 5 6.51187917 5 11 C3.35 10.67 1.7 10.34 0 10 C-0.33 8.35 -0.66 6.7 -1 5 C-1.66 5 -2.32 5 -3 5 C-3 4.34 -3 3.68 -3 3 C-2.34 3 -1.68 3 -1 3 C-0.67 2.01 -0.34 1.02 0 0 Z " fill="#B17B25" transform="translate(22,155)"/>
<path d="M0 0 C0.33 1.32 0.66 2.64 1 4 C0.34 4 -0.32 4 -1 4 C-1.309375 4.78375 -1.61875 5.5675 -1.9375 6.375 C-3 9 -3 9 -4 11 C-4.99 11 -5.98 11 -7 11 C-7.36625971 6.48279689 -7.36625971 6.48279689 -5.625 4.1875 C-4 3 -4 3 -2 3 C-2 2.34 -2 1.68 -2 1 C-1.34 0.67 -0.68 0.34 0 0 Z " fill="#9D6620" transform="translate(31,54)"/>
<path d="M0 0 C0.99 0 1.98 0 3 0 C3 2.31 3 4.62 3 7 C2.34 7 1.68 7 1 7 C0.67 7.99 0.34 8.98 0 10 C0 9.01 0 8.02 0 7 C-0.66 7 -1.32 7 -2 7 C-2.33 7.99 -2.66 8.98 -3 10 C-3 8.02 -3 6.04 -3 4 C-2.34 4 -1.68 4 -1 4 C-0.67 2.68 -0.34 1.36 0 0 Z " fill="#AE7824" transform="translate(143,43)"/>
<path d="M0 0 C0.66 0 1.32 0 2 0 C2 0.66 2 1.32 2 2 C2.99 2 3.98 2 5 2 C4.45276317 5.37462715 3.9451 7.08235 2 10 C1.34 10 0.68 10 0 10 C0 9.34 0 8.68 0 8 C0.66 8 1.32 8 2 8 C1.67 6.68 1.34 5.36 1 4 C-0.32 5.32 -1.64 6.64 -3 8 C-2.67 6.02 -2.34 4.04 -2 2 C-1.34 2 -0.68 2 0 2 C0 1.34 0 0.68 0 0 Z " fill="#CA952B" transform="translate(22,63)"/>
<path d="M0 0 C0.33 1.32 0.66 2.64 1 4 C-0.65 4 -2.3 4 -4 4 C-4 4.66 -4 5.32 -4 6 C-5.65 6.33 -7.3 6.66 -9 7 C-9 6.34 -9 5.68 -9 5 C-9.66 4.34 -10.32 3.68 -11 3 C-10.28972656 2.86722656 -9.57945312 2.73445312 -8.84765625 2.59765625 C-7.92855469 2.42105469 -7.00945312 2.24445313 -6.0625 2.0625 C-4.68771484 1.80146484 -4.68771484 1.80146484 -3.28515625 1.53515625 C-1.04710156 1.22285012 -1.04710156 1.22285012 0 0 Z " fill="#B78126" transform="translate(152,182)"/>
<path d="M0 0 C-0.99 0.33 -1.98 0.66 -3 1 C-3 1.66 -3 2.32 -3 3 C-6.40562852 3.77842938 -9.50765756 4.09978121 -13 4 C-9.23751581 -0.35656064 -5.53870938 -1.58248839 0 0 Z " fill="#A16A21" transform="translate(58,167)"/>
<path d="M0 0 C0 1.98 0 3.96 0 6 C-0.66 6 -1.32 6 -2 6 C-2 6.99 -2 7.98 -2 9 C-2.66 9 -3.32 9 -4 9 C-4.33 9.99 -4.66 10.98 -5 12 C-5 9.36 -5 6.72 -5 4 C-4.34 4 -3.68 4 -3 4 C-3 3.01 -3 2.02 -3 1 C-1 0 -1 0 0 0 Z " fill="#6B3213" transform="translate(71,77)"/>
<path d="M0 0 C0.99 0 1.98 0 3 0 C3.84069415 1.60032137 4.67231505 3.20541171 5.5 4.8125 C5.9640625 5.70582031 6.428125 6.59914063 6.90625 7.51953125 C8 10 8 10 8 13 C7.34 13 6.68 13 6 13 C5.67 11.35 5.34 9.7 5 8 C4.34 8 3.68 8 3 8 C2.67 6.35 2.34 4.7 2 3 C1.34 3 0.68 3 0 3 C0 2.01 0 1.02 0 0 Z " fill="#DAA62F" transform="translate(179,86)"/>
<path d="M0 0 C3.4375 0.8125 3.4375 0.8125 7 2 C7.33 2.99 7.66 3.98 8 5 C7.01 5.33 6.02 5.66 5 6 C5 6.66 5 7.32 5 8 C2.525 7.01 2.525 7.01 0 6 C0.99 5.67 1.98 5.34 3 5 C3 4.01 3 3.02 3 2 C2.01 2 1.02 2 0 2 C0 1.34 0 0.68 0 0 Z " fill="#C38E29" transform="translate(55,194)"/>
<path d="M0 0 C3.14373548 3.14373548 3.96444118 4.77146816 5 9 C4.625 11.375 4.625 11.375 4 13 C3.67 11.68 3.34 10.36 3 9 C2.34 9 1.68 9 1 9 C0.67 6.03 0.34 3.06 0 0 Z " fill="#965F1E" transform="translate(13,139)"/>
<path d="M0 0 C0.66 0 1.32 0 2 0 C2.33 2.31 2.66 4.62 3 7 C1.02 7.99 1.02 7.99 -1 9 C-0.67 6.03 -0.34 3.06 0 0 Z " fill="#4F1809" transform="translate(70,114)"/>
<path d="M0 0 C3.94727588 -0.17942163 6.5980513 -0.09350689 10 2 C10 2.66 10 3.32 10 4 C10.99 4.33 11.98 4.66 13 5 C10 6 10 6 7 5 C7 4.34 7 3.68 7 3 C4.69 2.34 2.38 1.68 0 1 C0 0.67 0 0.34 0 0 Z " fill="#CD992C" transform="translate(146,65)"/>
<path d="M0 0 C1.65 0 3.3 0 5 0 C5 0.66 5 1.32 5 2 C7.97 2.495 7.97 2.495 11 3 C11 3.66 11 4.32 11 5 C7.0507432 4.44894091 3.65079826 3.61064629 0 2 C0 1.34 0 0.68 0 0 Z " fill="#965F1E" transform="translate(148,68)"/>
<path d="M0 0 C0.33 0 0.66 0 1 0 C1 2.31 1 4.62 1 7 C0.34 7 -0.32 7 -1 7 C-1.33 8.32 -1.66 9.64 -2 11 C-2.66 11 -3.32 11 -4 11 C-4 9.68 -4 8.36 -4 7 C-3.34 7 -2.68 7 -2 7 C-1.855625 6.21625 -1.71125 5.4325 -1.5625 4.625 C-1 2 -1 2 0 0 Z " fill="#965F1E" transform="translate(188,146)"/>
<path d="M0 0 C0.66 0 1.32 0 2 0 C2 0.99 2 1.98 2 3 C-0.375 5.0625 -0.375 5.0625 -3 7 C-3.66 7.66 -4.32 8.32 -5 9 C-5 7.02 -5 5.04 -5 3 C-3.35 2.67 -1.7 2.34 0 2 C0 1.34 0 0.68 0 0 Z " fill="#E6B332" transform="translate(197,137)"/>
<path d="M0 0 C0.99 0 1.98 0 3 0 C2.67 1.32 2.34 2.64 2 4 C1.34 4 0.68 4 0 4 C0 4.99 0 5.98 0 7 C-1.375 8.6875 -1.375 8.6875 -3 10 C-3.66 10 -4.32 10 -5 10 C-3.33333333 6.66666667 -1.66666667 3.33333333 0 0 Z " fill="#BB8627" transform="translate(81,63)"/>
<path d="M0 0 C0.33 0.66 0.66 1.32 1 2 C1.99 2 2.98 2 4 2 C3.67 3.32 3.34 4.64 3 6 C2.34 6 1.68 6 1 6 C0.67 5.34 0.34 4.68 0 4 C-0.66 4 -1.32 4 -2 4 C-2 4.66 -2 5.32 -2 6 C-2.66 6 -3.32 6 -4 6 C-3.6875 4.125 -3.6875 4.125 -3 2 C-2.01 1.34 -1.02 0.68 0 0 Z " fill="#BF8A28" transform="translate(31,51)"/>
<path d="M0 0 C0.33 0 0.66 0 1 0 C1.33 2.64 1.66 5.28 2 8 C1.34 8 0.68 8 0 8 C-0.33 9.65 -0.66 11.3 -1 13 C-1.33 13 -1.66 13 -2 13 C-2.16682272 8.07872966 -2.24828052 4.49656104 0 0 Z " fill="#AD7724" transform="translate(11,91)"/>
<path d="M0 0 C0.33 0 0.66 0 1 0 C1 1.65 1 3.3 1 5 C0.34 5 -0.32 5 -1 5 C-1.33 6.32 -1.66 7.64 -2 9 C-2.66 9 -3.32 9 -4 9 C-3.47181039 5.19703482 -2.56226812 2.88255163 0 0 Z " fill="#955E1E" transform="translate(23,66)"/>
<path d="M0 0 C1.98 0 3.96 0 6 0 C3.87878343 2.33333823 1.98405635 3.9148886 -1 5 C-3.25 4.625 -3.25 4.625 -5 4 C-3.35 3.34 -1.7 2.68 0 2 C0 1.34 0 0.68 0 0 Z " fill="#C18C29" transform="translate(104,45)"/>
<path d="M0 0 C-0.33 1.32 -0.66 2.64 -1 4 C-3.31 4.66 -5.62 5.32 -8 6 C-8 5.01 -8 4.02 -8 3 C-2.25 0 -2.25 0 0 0 Z " fill="#C08B29" transform="translate(213,128)"/>
<path d="M0 0 C0.86625 0.556875 0.86625 0.556875 1.75 1.125 C0.1 1.455 -1.55 1.785 -3.25 2.125 C-3.25 3.115 -3.25 4.105 -3.25 5.125 C-4.24 4.795 -5.23 4.465 -6.25 4.125 C-6.25 3.135 -6.25 2.145 -6.25 1.125 C-2.80384615 -1.09038462 -2.80384615 -1.09038462 0 0 Z " fill="#A46D21" transform="translate(167.25,175.875)"/>
<path d="M0 0 C0 0.66 0 1.32 0 2 C0.99 1.67 1.98 1.34 3 1 C2.34 2.32 1.68 3.64 1 5 C-0.98 5 -2.96 5 -5 5 C-5 3 -5 3 -3.625 1.375 C-2 0 -2 0 0 0 Z " fill="#AF7A25" transform="translate(179,163)"/>
<path d="M0 0 C0.99 0 1.98 0 3 0 C3 0.66 3 1.32 3 2 C3.66 2 4.32 2 5 2 C5 2.99 5 3.98 5 5 C3.35 4.67 1.7 4.34 0 4 C0 2.68 0 1.36 0 0 Z " fill="#97601E" transform="translate(171,81)"/>
<path d="M0 0 C2.31 0.33 4.62 0.66 7 1 C7 2.32 7 3.64 7 5 C4.0625 4.1875 4.0625 4.1875 1 3 C0.67 2.01 0.34 1.02 0 0 Z " fill="#EFC339" transform="translate(149,73)"/>
<path d="M0 0 C1.98 0 3.96 0 6 0 C6 0.99 6 1.98 6 3 C4.02 3 2.04 3 0 3 C0 2.01 0 1.02 0 0 Z " fill="#9A631F" transform="translate(78,209)"/>
<path d="M0 0 C0.99 0 1.98 0 3 0 C3 0.99 3 1.98 3 3 C3.66 3 4.32 3 5 3 C4.67 4.32 4.34 5.64 4 7 C3.34 5.68 2.68 4.36 2 3 C1.34 3 0.68 3 0 3 C0 2.01 0 1.02 0 0 Z " fill="#935C1D" transform="translate(179,91)"/>
<path d="M0 0 C0.33 0.99 0.66 1.98 1 3 C-1.35438733 4.42944945 -2.48032433 5.08661261 -5.25 4.625 C-5.8275 4.41875 -6.405 4.2125 -7 4 C-5.68 3.67 -4.36 3.34 -3 3 C-3 2.34 -3 1.68 -3 1 C-2.01 0.67 -1.02 0.34 0 0 Z " fill="#DCAE3A" transform="translate(97,41)"/>
<path d="M0 0 C0.99 0 1.98 0 3 0 C3 0.66 3 1.32 3 2 C3.66 2 4.32 2 5 2 C5.33 2.99 5.66 3.98 6 5 C3.83125748 4.49396008 2.00032373 4.00016187 0 3 C0 2.01 0 1.02 0 0 Z " fill="#945D1E" transform="translate(40,184)"/>
<path d="M0 0 C1.32 0 2.64 0 4 0 C4 0.66 4 1.32 4 2 C4.66 2.33 5.32 2.66 6 3 C5.34 3 4.68 3 4 3 C4 3.66 4 4.32 4 5 C3.34 5 2.68 5 2 5 C1.34 3.35 0.68 1.7 0 0 Z " fill="#A06920" transform="translate(167,78)"/>
<path d="M0 0 C0.1875 2.375 0.1875 2.375 0 5 C-0.99 5.66 -1.98 6.32 -3 7 C-3.6875 5.1875 -3.6875 5.1875 -4 3 C-1.64285714 0 -1.64285714 0 0 0 Z " fill="#743C16" transform="translate(76,69)"/>
</svg>
